<?xml version="1.0" encoding="utf-8"?>
<!-- Generator: Adobe Illustrator 26.0.0, SVG Export Plug-In . SVG Version: 6.00 Build 0)  -->
<svg version="1.1" id="Capa_1" xmlns="http://www.w3.org/2000/svg" xmlns:xlink="http://www.w3.org/1999/xlink" x="0px" y="0px"
	 viewBox="0 0 100 50" style="enable-background:new 0 0 100 50;" xml:space="preserve">
<style type="text/css">
	.st0{fill:#FFFFFF;}
	.st1{fill:#E84480;}
	.st2{fill:#652576;}
	.st3{fill:#F7DEBF;}
	.st4{fill:#5B2671;}
	.st5{fill:#F0E591;}
	.st6{fill:#ED75A9;}
</style>
<g>
	<g>
		<g>
			<g>
				<path class="st0" d="M55.8,19.6c0,0.2,0,0.4,0,0.7c0,0.2,0,0.4,0,0.7c0,0.5-0.1,0.9-0.3,1.3c-0.2,0.4-0.4,0.8-0.7,1.1
					c-0.3,0.3-0.6,0.6-1,0.8s-0.9,0.3-1.4,0.3c-0.2,0-0.4,0-0.6-0.1c-0.2,0-0.4-0.1-0.6-0.2c-0.2-0.1-0.4-0.2-0.6-0.3
					c-0.2-0.1-0.4-0.2-0.5-0.3l0.4-2.4c0.2,0.2,0.5,0.4,0.7,0.5C51.4,22,51.7,22,52,22c0.2,0,0.4,0,0.5-0.1c0.1-0.1,0.3-0.1,0.4-0.3
					c0.1-0.1,0.2-0.2,0.2-0.4c0.1-0.1,0.1-0.3,0.1-0.5c0-0.2,0-0.3,0-0.5c0-0.2,0-0.3,0-0.5c0-0.6,0-1.2-0.1-1.8
					c-0.1-0.6-0.1-1.2-0.2-1.8l2.6-0.2C55.7,17.3,55.8,18.5,55.8,19.6z"/>
				<path class="st0" d="M62,16.3l-0.3,2.4c-0.1,0-0.2-0.1-0.3-0.1c-0.1,0-0.2,0-0.3,0c-0.3,0-0.6,0-0.8,0.1
					c-0.3,0.1-0.5,0.2-0.7,0.3c-0.2,0.2-0.3,0.3-0.5,0.6C59,19.9,59,20.2,59,20.5c0,0.2,0,0.4,0.1,0.5c0.1,0.1,0.2,0.3,0.3,0.4
					c0.1,0.1,0.2,0.2,0.4,0.2c0.2,0,0.3,0.1,0.5,0.1c0.1,0,0.3,0,0.4,0c0.2,0,0.3-0.1,0.4-0.1c0.1-0.1,0.3-0.1,0.4-0.2
					c0.1-0.1,0.3-0.1,0.4-0.2l-0.2,2.7c-0.1,0.1-0.3,0.1-0.5,0.2c-0.2,0.1-0.3,0.1-0.5,0.2c-0.2,0-0.4,0.1-0.5,0.1
					c-0.2,0-0.4,0-0.5,0c-0.5,0-0.9-0.1-1.3-0.3c-0.4-0.2-0.8-0.4-1.1-0.7c-0.3-0.3-0.6-0.7-0.7-1.1c-0.2-0.4-0.3-0.9-0.3-1.4
					c0-0.7,0.1-1.3,0.3-1.8c0.2-0.6,0.5-1.1,0.8-1.5c0.4-0.4,0.8-0.8,1.3-1c0.5-0.3,1.1-0.4,1.8-0.4c0.3,0,0.5,0,0.8,0.1
					C61.6,16.1,61.8,16.2,62,16.3z"/>
				<path class="st0" d="M70.7,16.2l-0.1,2.4l-1.7,0.1l-0.4,5.4l-2.4,0.1l0-5.4l-1.7,0.1l0.1-2.7L70.7,16.2z"/>
				<path class="st0" d="M77.8,20.3c0,0.3,0,0.7-0.1,1c-0.1,0.3-0.2,0.6-0.3,0.9S77,22.8,76.8,23s-0.5,0.4-0.7,0.6
					c-0.3,0.2-0.6,0.3-0.9,0.4c-0.3,0.1-0.6,0.1-1,0.1c-0.3,0-0.7,0-1-0.1c-0.3-0.1-0.6-0.2-0.9-0.4c-0.3-0.2-0.5-0.3-0.7-0.6
					c-0.2-0.2-0.4-0.5-0.6-0.7c-0.2-0.3-0.3-0.6-0.4-0.9c-0.1-0.3-0.1-0.6-0.1-1c0-0.3,0-0.7,0.1-1c0.1-0.3,0.2-0.6,0.3-0.9
					c0.2-0.3,0.3-0.5,0.5-0.8c0.2-0.2,0.4-0.4,0.7-0.6c0.3-0.2,0.6-0.3,0.9-0.4c0.3-0.1,0.6-0.1,1-0.1c0.6,0,1,0.1,1.5,0.3
					c0.5,0.2,0.8,0.4,1.2,0.7c0.3,0.3,0.6,0.7,0.7,1.2C77.7,19.3,77.8,19.8,77.8,20.3z M75.2,20.5c0-0.2,0-0.3-0.1-0.5
					c0-0.2-0.1-0.3-0.2-0.4c-0.1-0.1-0.2-0.2-0.3-0.3c-0.1-0.1-0.3-0.1-0.5-0.1c-0.2,0-0.3,0-0.5,0.1c-0.1,0.1-0.3,0.2-0.4,0.3
					c-0.1,0.1-0.2,0.2-0.2,0.4S73,20.2,73,20.4c0,0.2,0,0.3,0.1,0.5c0,0.2,0.1,0.3,0.2,0.4c0.1,0.1,0.2,0.2,0.3,0.3
					c0.1,0.1,0.3,0.1,0.5,0.1s0.3,0,0.5-0.1c0.1-0.1,0.3-0.2,0.4-0.3c0.1-0.1,0.2-0.3,0.2-0.4C75.2,20.8,75.2,20.6,75.2,20.5z"/>
				<path class="st0" d="M85.2,20.3c0,0.3,0,0.7-0.1,1c-0.1,0.3-0.2,0.6-0.3,0.9c-0.2,0.3-0.3,0.5-0.5,0.8s-0.5,0.4-0.7,0.6
					S83,23.9,82.6,24c-0.3,0.1-0.6,0.1-1,0.1c-0.3,0-0.7,0-1-0.1c-0.3-0.1-0.6-0.2-0.9-0.4c-0.3-0.2-0.5-0.3-0.7-0.6
					c-0.2-0.2-0.4-0.5-0.6-0.7c-0.2-0.3-0.3-0.6-0.4-0.9c-0.1-0.3-0.1-0.6-0.1-1c0-0.3,0-0.7,0.1-1c0.1-0.3,0.2-0.6,0.3-0.9
					c0.2-0.3,0.3-0.5,0.5-0.8c0.2-0.2,0.4-0.4,0.7-0.6c0.3-0.2,0.6-0.3,0.9-0.4c0.3-0.1,0.6-0.1,1-0.1c0.6,0,1,0.1,1.5,0.3
					c0.5,0.2,0.8,0.4,1.2,0.7c0.3,0.3,0.6,0.7,0.7,1.2C85.1,19.3,85.2,19.8,85.2,20.3z M82.7,20.5c0-0.2,0-0.3-0.1-0.5
					c0-0.2-0.1-0.3-0.2-0.4c-0.1-0.1-0.2-0.2-0.3-0.3c-0.1-0.1-0.3-0.1-0.5-0.1c-0.2,0-0.3,0-0.5,0.1c-0.1,0.1-0.3,0.2-0.4,0.3
					c-0.1,0.1-0.2,0.2-0.2,0.4s-0.1,0.3-0.1,0.5c0,0.2,0,0.3,0.1,0.5c0,0.2,0.1,0.3,0.2,0.4c0.1,0.1,0.2,0.2,0.3,0.3
					c0.1,0.1,0.3,0.1,0.5,0.1c0.2,0,0.3,0,0.5-0.1c0.1-0.1,0.3-0.2,0.4-0.3c0.1-0.1,0.2-0.3,0.2-0.4C82.7,20.8,82.7,20.6,82.7,20.5z
					"/>
				<path class="st0" d="M93.5,16.2l-0.4,7.7l-3,0.3L88.5,20l-0.3,4.2h-2.6l0.2-8.1l2.8-0.1l2,4.1l0.1-3.9L93.5,16.2z"/>
				<path class="st0" d="M100,21.3c0,0.5-0.1,1-0.3,1.4c-0.2,0.4-0.4,0.7-0.7,1c-0.3,0.3-0.7,0.4-1.1,0.6c-0.4,0.1-0.9,0.2-1.3,0.2
					c-0.2,0-0.4,0-0.6-0.1c-0.2-0.1-0.4-0.1-0.7-0.2c-0.2-0.1-0.4-0.2-0.7-0.2s-0.4-0.2-0.6-0.2l0.3-2.3c0.3,0.2,0.7,0.3,1.1,0.4
					c0.4,0.1,0.8,0.2,1.2,0.2c0.1,0,0.2,0,0.3,0c0.1,0,0.2,0,0.3-0.1c0.1,0,0.2-0.1,0.2-0.1c0.1-0.1,0.1-0.1,0.1-0.2
					c0-0.1,0-0.1-0.1-0.2c0-0.1-0.1-0.1-0.2-0.1s-0.2-0.1-0.2-0.1c-0.1,0-0.2,0-0.3,0c-0.1,0-0.2,0-0.2,0s-0.1,0-0.2,0
					c-0.3,0-0.6-0.1-0.9-0.2c-0.3-0.1-0.5-0.3-0.7-0.5c-0.2-0.2-0.3-0.4-0.4-0.7c-0.1-0.3-0.2-0.6-0.2-0.9c0-0.4,0.1-0.8,0.3-1.2
					c0.2-0.4,0.4-0.7,0.7-0.9c0.3-0.2,0.6-0.4,1-0.6c0.4-0.1,0.8-0.2,1.2-0.2c0.2,0,0.4,0,0.6,0c0.2,0,0.4,0,0.6,0.1
					s0.4,0.1,0.6,0.1c0.2,0.1,0.4,0.1,0.5,0.2l-0.2,2.3c-0.3-0.1-0.5-0.2-0.8-0.2c-0.3-0.1-0.6-0.1-0.8-0.1c-0.1,0-0.1,0-0.2,0
					s-0.2,0-0.2,0c-0.1,0-0.2,0-0.3,0c-0.1,0-0.2,0-0.2,0.1c-0.1,0-0.1,0.1-0.2,0.1c0,0.1-0.1,0.1-0.1,0.2c0,0.1,0,0.2,0.1,0.2
					c0.1,0.1,0.1,0.1,0.2,0.1s0.2,0.1,0.3,0.1c0.1,0,0.2,0,0.3,0c0.1,0,0.2,0,0.3,0c0.1,0,0.2,0,0.2,0c0.3,0,0.6,0.1,0.8,0.2
					c0.2,0.1,0.4,0.3,0.6,0.4s0.3,0.4,0.4,0.7C100,20.7,100,21,100,21.3z"/>
			</g>
		</g>
		<g>
			<g>
				<path class="st0" d="M51.1,32.6h-0.9V28h0.9V32.6z"/>
				<path class="st0" d="M53.9,27.8v4.7h-0.8v-4.7H53.9z"/>
				<path class="st0" d="M58.6,29.3v3.3h-0.5c-0.1,0-0.2-0.1-0.2-0.1l-0.1-0.3c-0.1,0.1-0.3,0.2-0.4,0.3c-0.2,0.1-0.3,0.1-0.6,0.1
					c-0.2,0-0.3,0-0.5-0.1c-0.1-0.1-0.3-0.1-0.3-0.3c-0.1-0.1-0.2-0.2-0.2-0.4c-0.1-0.2-0.1-0.3-0.1-0.5v-2.1h0.8v2.1
					c0,0.2,0,0.4,0.1,0.5s0.2,0.2,0.4,0.2c0.1,0,0.3,0,0.4-0.1c0.1-0.1,0.2-0.1,0.3-0.2v-2.4L58.6,29.3L58.6,29.3z"/>
				<path class="st0" d="M62.5,29.9C62.5,30,62.5,30,62.5,29.9C62.4,30,62.4,30,62.4,30s-0.1,0-0.1,0c0,0-0.1,0-0.2-0.1
					c-0.1,0-0.1-0.1-0.2-0.1c-0.1,0-0.2,0-0.3,0c-0.2,0-0.3,0-0.4,0.1c-0.1,0.1-0.1,0.2-0.1,0.3c0,0.1,0,0.1,0.1,0.2
					c0,0.1,0.1,0.1,0.2,0.1c0.1,0,0.2,0.1,0.3,0.1c0.1,0,0.2,0.1,0.3,0.1c0.1,0,0.2,0.1,0.3,0.1c0.1,0,0.2,0.1,0.3,0.2
					c0.1,0.1,0.1,0.1,0.2,0.2c0,0.1,0.1,0.2,0.1,0.3c0,0.2,0,0.3-0.1,0.4c-0.1,0.1-0.1,0.2-0.2,0.3s-0.2,0.2-0.4,0.2
					c-0.2,0.1-0.3,0.1-0.6,0.1c-0.1,0-0.2,0-0.3,0c-0.1,0-0.2-0.1-0.3-0.1c-0.1,0-0.2-0.1-0.3-0.1c-0.1-0.1-0.2-0.1-0.2-0.2l0.2-0.3
					c0,0,0.1-0.1,0.1-0.1c0,0,0.1,0,0.1,0c0.1,0,0.1,0,0.1,0c0,0,0.1,0.1,0.2,0.1c0.1,0,0.1,0.1,0.2,0.1c0.1,0,0.2,0,0.3,0
					c0.1,0,0.2,0,0.2,0c0.1,0,0.1-0.1,0.2-0.1c0,0,0.1-0.1,0.1-0.1c0-0.1,0-0.1,0-0.1c0-0.1,0-0.1-0.1-0.2s-0.1-0.1-0.2-0.1
					c-0.1,0-0.2-0.1-0.3-0.1c-0.1,0-0.2-0.1-0.3-0.1c-0.1,0-0.2-0.1-0.3-0.1c-0.1,0-0.2-0.1-0.3-0.2c-0.1-0.1-0.1-0.2-0.2-0.3
					c0-0.1-0.1-0.2-0.1-0.4c0-0.1,0-0.3,0.1-0.4c0.1-0.1,0.1-0.2,0.2-0.3s0.2-0.2,0.4-0.2c0.2-0.1,0.3-0.1,0.5-0.1
					c0.2,0,0.4,0,0.6,0.1c0.2,0.1,0.3,0.2,0.5,0.3L62.5,29.9z"/>
				<path class="st0" d="M65.6,32.6c-0.3,0-0.5-0.1-0.7-0.2c-0.2-0.2-0.2-0.4-0.2-0.7v-1.8h-0.3c0,0-0.1,0-0.1,0c0,0,0-0.1,0-0.1
					v-0.3l0.5-0.1l0.2-0.9c0,0,0-0.1,0.1-0.1c0,0,0.1,0,0.1,0h0.4v1h0.9v0.6h-0.9v1.8c0,0.1,0,0.2,0.1,0.2c0.1,0.1,0.1,0.1,0.2,0.1
					c0.1,0,0.1,0,0.1,0c0,0,0.1,0,0.1,0s0,0,0.1,0c0,0,0,0,0.1,0c0,0,0,0,0.1,0c0,0,0,0,0.1,0.1l0.2,0.4c-0.1,0.1-0.2,0.2-0.4,0.2
					C65.9,32.6,65.7,32.6,65.6,32.6z"/>
				<path class="st0" d="M68.7,29.9c0.1-0.2,0.2-0.3,0.4-0.5c0.1-0.1,0.3-0.2,0.5-0.2c0.2,0,0.3,0,0.4,0.1l-0.1,0.6c0,0,0,0.1,0,0.1
					c0,0,0,0-0.1,0c0,0-0.1,0-0.1,0c-0.1,0-0.1,0-0.2,0c-0.1,0-0.2,0-0.2,0c-0.1,0-0.1,0.1-0.2,0.1c-0.1,0.1-0.1,0.1-0.1,0.2
					c0,0.1-0.1,0.1-0.1,0.2v2H68v-3.3h0.5c0.1,0,0.1,0,0.2,0c0,0,0.1,0.1,0.1,0.2L68.7,29.9z"/>
				<path class="st0" d="M71.5,29.7c0.4-0.3,0.8-0.5,1.4-0.5c0.2,0,0.4,0,0.5,0.1c0.2,0.1,0.3,0.2,0.4,0.3c0.1,0.1,0.2,0.2,0.2,0.4
					c0.1,0.2,0.1,0.3,0.1,0.5v2.1h-0.4c-0.1,0-0.1,0-0.2,0c0,0-0.1-0.1-0.1-0.1l-0.1-0.2c-0.1,0.1-0.2,0.1-0.2,0.2
					c-0.1,0.1-0.2,0.1-0.2,0.1c-0.1,0-0.2,0.1-0.3,0.1c-0.1,0-0.2,0-0.3,0c-0.1,0-0.3,0-0.4-0.1c-0.1,0-0.2-0.1-0.3-0.2
					c-0.1-0.1-0.2-0.2-0.2-0.3c0-0.1-0.1-0.2-0.1-0.4c0-0.1,0-0.2,0-0.2c0-0.1,0.1-0.2,0.1-0.2c0.1-0.1,0.1-0.1,0.2-0.2
					c0.1-0.1,0.2-0.1,0.4-0.2c0.1-0.1,0.3-0.1,0.5-0.1c0.2,0,0.4-0.1,0.7-0.1v-0.2c0-0.2,0-0.4-0.1-0.5c-0.1-0.1-0.2-0.2-0.4-0.2
					c-0.1,0-0.2,0-0.3,0c-0.1,0-0.2,0.1-0.2,0.1c-0.1,0-0.1,0.1-0.2,0.1s-0.1,0-0.2,0c-0.1,0-0.1,0-0.1,0S71.6,30,71.6,30L71.5,29.7
					z M73.3,31.2c-0.2,0-0.4,0-0.6,0.1c-0.2,0-0.3,0.1-0.4,0.1c-0.1,0-0.2,0.1-0.2,0.2c0,0.1-0.1,0.1-0.1,0.2c0,0.1,0,0.2,0.1,0.3
					c0.1,0.1,0.2,0.1,0.3,0.1c0.2,0,0.3,0,0.4-0.1s0.2-0.1,0.3-0.3L73.3,31.2L73.3,31.2z"/>
				<path class="st0" d="M78.2,30C78.2,30,78.2,30,78.2,30c-0.1,0.1-0.1,0.1-0.2,0.1c0,0-0.1,0-0.1,0c0,0-0.1-0.1-0.1-0.1
					c-0.1,0-0.1-0.1-0.2-0.1c-0.1,0-0.2,0-0.3,0c-0.1,0-0.3,0-0.4,0.1c-0.1,0.1-0.2,0.1-0.3,0.2s-0.1,0.2-0.2,0.3
					c0,0.1-0.1,0.3-0.1,0.4c0,0.2,0,0.3,0.1,0.5c0,0.1,0.1,0.2,0.2,0.3c0.1,0.1,0.2,0.2,0.3,0.2c0.1,0.1,0.2,0.1,0.3,0.1
					s0.2,0,0.3,0s0.1-0.1,0.2-0.1c0.1,0,0.1-0.1,0.1-0.1c0,0,0.1,0,0.1,0c0.1,0,0.1,0,0.1,0.1l0.2,0.3c-0.1,0.1-0.2,0.2-0.3,0.3
					c-0.1,0.1-0.2,0.1-0.3,0.2c-0.1,0-0.2,0.1-0.3,0.1c-0.1,0-0.2,0-0.3,0c-0.2,0-0.4,0-0.6-0.1c-0.2-0.1-0.3-0.2-0.5-0.3
					s-0.2-0.3-0.3-0.5c-0.1-0.2-0.1-0.4-0.1-0.7c0-0.2,0-0.5,0.1-0.7c0.1-0.2,0.2-0.4,0.3-0.5c0.1-0.2,0.3-0.3,0.5-0.4
					c0.2-0.1,0.4-0.1,0.7-0.1c0.2,0,0.5,0,0.6,0.1c0.2,0.1,0.3,0.2,0.5,0.3L78.2,30z"/>
				<path class="st0" d="M81,28.3c0,0.1,0,0.1,0,0.2c0,0.1-0.1,0.1-0.1,0.2c0,0-0.1,0.1-0.2,0.1c-0.1,0-0.1,0-0.2,0s-0.1,0-0.2,0
					c-0.1,0-0.1-0.1-0.2-0.1c0,0-0.1-0.1-0.1-0.2c0-0.1,0-0.1,0-0.2s0-0.1,0-0.2c0-0.1,0.1-0.1,0.1-0.2c0,0,0.1-0.1,0.2-0.1
					c0.1,0,0.1,0,0.2,0c0.1,0,0.1,0,0.2,0c0.1,0,0.1,0.1,0.2,0.1c0,0,0.1,0.1,0.1,0.2C81,28.2,81,28.3,81,28.3z M80.9,29.3v3.3h-0.8
					v-3.3H80.9z"/>
				<path class="st0" d="M84.2,29.2c0.2,0,0.5,0,0.7,0.1c0.2,0.1,0.4,0.2,0.5,0.3c0.1,0.1,0.2,0.3,0.3,0.5c0.1,0.2,0.1,0.4,0.1,0.7
					c0,0.3,0,0.5-0.1,0.7c-0.1,0.2-0.2,0.4-0.3,0.5c-0.1,0.1-0.3,0.3-0.5,0.3c-0.2,0.1-0.4,0.1-0.7,0.1c-0.2,0-0.5,0-0.7-0.1
					c-0.2-0.1-0.4-0.2-0.5-0.3c-0.1-0.1-0.2-0.3-0.3-0.5c-0.1-0.2-0.1-0.4-0.1-0.7c0-0.3,0-0.5,0.1-0.7c0.1-0.2,0.2-0.4,0.3-0.5
					c0.1-0.1,0.3-0.3,0.5-0.3C83.8,29.3,84,29.2,84.2,29.2z M84.2,32c0.3,0,0.5-0.1,0.6-0.3c0.1-0.2,0.2-0.4,0.2-0.8
					c0-0.4-0.1-0.6-0.2-0.8c-0.1-0.2-0.3-0.3-0.6-0.3c-0.3,0-0.5,0.1-0.6,0.3c-0.1,0.2-0.2,0.5-0.2,0.8c0,0.3,0.1,0.6,0.2,0.8
					C83.7,31.9,83.9,32,84.2,32z"/>
				<path class="st0" d="M88.3,29.7c0.1-0.1,0.1-0.1,0.2-0.2c0.1-0.1,0.2-0.1,0.2-0.1c0.1,0,0.2-0.1,0.3-0.1c0.1,0,0.2,0,0.3,0
					c0.2,0,0.3,0,0.5,0.1c0.1,0.1,0.3,0.1,0.3,0.3c0.1,0.1,0.2,0.2,0.2,0.4c0.1,0.2,0.1,0.3,0.1,0.5v2.1h-0.8v-2.1
					c0-0.2,0-0.4-0.1-0.5c-0.1-0.1-0.2-0.2-0.4-0.2c-0.1,0-0.3,0-0.4,0.1c-0.1,0.1-0.2,0.1-0.3,0.3v2.4h-0.8v-3.3H88
					c0.1,0,0.2,0.1,0.2,0.1L88.3,29.7z"/>
				<path class="st0" d="M92.9,31c0,0.2,0,0.3,0.1,0.4c0,0.1,0.1,0.2,0.2,0.3s0.2,0.1,0.3,0.2c0.1,0,0.2,0.1,0.3,0.1s0.2,0,0.3,0
					c0.1,0,0.2-0.1,0.2-0.1c0.1,0,0.1-0.1,0.2-0.1c0.1,0,0.1,0,0.2,0c0.1,0,0.1,0,0.1,0.1l0.2,0.3c-0.1,0.1-0.2,0.2-0.3,0.3
					c-0.1,0.1-0.2,0.1-0.3,0.2c-0.1,0-0.2,0.1-0.4,0.1c-0.1,0-0.2,0-0.4,0c-0.2,0-0.4,0-0.6-0.1c-0.2-0.1-0.4-0.2-0.5-0.3
					c-0.1-0.1-0.3-0.3-0.3-0.5c-0.1-0.2-0.1-0.5-0.1-0.8c0-0.2,0-0.4,0.1-0.6s0.2-0.4,0.3-0.5c0.1-0.1,0.3-0.3,0.5-0.3
					c0.2-0.1,0.4-0.1,0.7-0.1c0.2,0,0.4,0,0.6,0.1c0.2,0.1,0.3,0.2,0.4,0.3c0.1,0.1,0.2,0.3,0.3,0.5s0.1,0.4,0.1,0.6
					c0,0.1,0,0.2,0,0.2c0,0-0.1,0.1-0.1,0.1L92.9,31L92.9,31z M94.4,30.5c0-0.1,0-0.2,0-0.3c0-0.1-0.1-0.2-0.1-0.2
					c-0.1-0.1-0.1-0.1-0.2-0.2c-0.1,0-0.2-0.1-0.3-0.1c-0.2,0-0.4,0.1-0.5,0.2c-0.1,0.1-0.2,0.3-0.2,0.6L94.4,30.5L94.4,30.5z"/>
				<path class="st0" d="M98.8,29.9C98.8,30,98.7,30,98.8,29.9C98.7,30,98.7,30,98.6,30c0,0-0.1,0-0.1,0c0,0-0.1,0-0.2-0.1
					c-0.1,0-0.1-0.1-0.2-0.1s-0.2,0-0.3,0c-0.2,0-0.3,0-0.4,0.1c-0.1,0.1-0.1,0.2-0.1,0.3c0,0.1,0,0.1,0.1,0.2
					c0,0.1,0.1,0.1,0.2,0.1c0.1,0,0.2,0.1,0.3,0.1c0.1,0,0.2,0.1,0.3,0.1c0.1,0,0.2,0.1,0.3,0.1c0.1,0,0.2,0.1,0.3,0.2
					c0.1,0.1,0.1,0.1,0.2,0.2c0,0.1,0.1,0.2,0.1,0.3c0,0.2,0,0.3-0.1,0.4c-0.1,0.1-0.1,0.2-0.2,0.3c-0.1,0.1-0.2,0.2-0.4,0.2
					c-0.2,0.1-0.3,0.1-0.6,0.1c-0.1,0-0.2,0-0.3,0c-0.1,0-0.2-0.1-0.3-0.1c-0.1,0-0.2-0.1-0.3-0.1c-0.1-0.1-0.2-0.1-0.2-0.2l0.2-0.3
					c0,0,0.1-0.1,0.1-0.1c0,0,0.1,0,0.1,0c0.1,0,0.1,0,0.1,0c0,0,0.1,0.1,0.2,0.1c0.1,0,0.1,0.1,0.2,0.1c0.1,0,0.2,0,0.3,0
					c0.1,0,0.2,0,0.2,0c0.1,0,0.1-0.1,0.2-0.1c0,0,0.1-0.1,0.1-0.1c0-0.1,0-0.1,0-0.1c0-0.1,0-0.1-0.1-0.2s-0.1-0.1-0.2-0.1
					c-0.1,0-0.2-0.1-0.3-0.1c-0.1,0-0.2-0.1-0.3-0.1c-0.1,0-0.2-0.1-0.3-0.1c-0.1,0-0.2-0.1-0.3-0.2c-0.1-0.1-0.1-0.2-0.2-0.3
					c0-0.1-0.1-0.2-0.1-0.4c0-0.1,0-0.3,0.1-0.4c0.1-0.1,0.1-0.2,0.2-0.3s0.2-0.2,0.4-0.2c0.2-0.1,0.3-0.1,0.5-0.1
					c0.2,0,0.4,0,0.6,0.1c0.2,0.1,0.3,0.2,0.5,0.3L98.8,29.9z"/>
			</g>
		</g>
	</g>
	<g>
		<g>
			<ellipse class="st1" cx="23.8" cy="24.9" rx="23.1" ry="23.2"/>
			<path class="st2" d="M23.8,48.7C10.7,48.7,0,38,0,24.9S10.7,1.1,23.8,1.1s23.8,10.7,23.8,23.8S36.9,48.7,23.8,48.7z M23.8,2.3
				C11.4,2.3,1.2,12.4,1.2,24.9s10.1,22.6,22.5,22.6s22.5-10.1,22.5-22.6S36.2,2.3,23.8,2.3z"/>
		</g>
		<g>
			<ellipse class="st3" cx="23.8" cy="24.9" rx="17.9" ry="13.8"/>
			<path class="st2" d="M23.8,39.3c-10.2,0-18.5-6.5-18.5-14.5s8.3-14.5,18.5-14.5s18.5,6.5,18.5,14.5S34,39.3,23.8,39.3z
				 M23.8,11.7c-9.5,0-17.3,5.9-17.3,13.2s7.8,13.2,17.3,13.2s17.3-5.9,17.3-13.2S33.3,11.7,23.8,11.7z"/>
		</g>
		<g>
			<ellipse class="st3" cx="44.3" cy="22.7" rx="2.6" ry="2.3"/>
			<path class="st2" d="M44.3,25.7c-1.8,0-3.2-1.3-3.2-3s1.5-3,3.2-3s3.2,1.3,3.2,3C47.5,24.4,46.1,25.7,44.3,25.7z M44.3,21
				c-1.1,0-2,0.8-2,1.7c0,1,0.9,1.7,2,1.7s2-0.8,2-1.7C46.3,21.8,45.4,21,44.3,21z"/>
		</g>
		<g>
			<ellipse class="st3" cx="3.2" cy="22.7" rx="2.6" ry="2.3"/>
			<path class="st2" d="M3.2,25.7c-1.8,0-3.2-1.3-3.2-3s1.5-3,3.2-3s3.2,1.3,3.2,3C6.5,24.4,5,25.7,3.2,25.7z M3.2,21
				c-1.1,0-2,0.8-2,1.7c0,1,0.9,1.7,2,1.7s2-0.8,2-1.7C5.2,21.8,4.3,21,3.2,21z"/>
		</g>
		<path class="st4" d="M14.6,17.4l1.3,0.7c-0.2,0.9-0.7,1.6-1.3,1.6c-0.8,0-1.4-1-1.4-2.3c0-1.3,0.6-2.3,1.4-2.3
			c0.6,0,1.2,0.7,1.3,1.8L14.6,17.4z"/>
		<path class="st4" d="M32.9,17.4l1.3,0.7c-0.2,0.9-0.7,1.6-1.3,1.6c-0.8,0-1.4-1-1.4-2.3c0-1.3,0.6-2.3,1.4-2.3
			c0.6,0,1.2,0.7,1.3,1.8L32.9,17.4z"/>
		<g>
			<path class="st5" d="M42.7,11.9l-4.1,5.2c0.4,0.5,0.8,1,1.2,1.5l0.1,0l5.3-4.2l1.1-3.6L42.7,11.9z"/>
			<path class="st4" d="M39.5,19.1l-0.2-0.3c-0.3-0.5-0.7-1-1.1-1.4l-0.3-0.3l4.5-5.7L47,10l-1.5,4.7L40,19L39.5,19.1z M39.2,17.1
				c0.2,0.3,0.4,0.5,0.6,0.8l4.9-3.8l0.8-2.5L43,12.3L39.2,17.1z"/>
		</g>
		<path class="st2" d="M23.8,25.6c-5.2,0-8-1.8-8-3.4c0-0.3,0.2-0.5,0.5-0.5c0.3,0,0.5,0.2,0.5,0.5c0,1.2,3,2.4,7,2.4
			c4.4,0,7-1.4,7-2.5c0-0.3,0.2-0.5,0.5-0.5c0.3,0,0.5,0.2,0.5,0.5C31.8,23.8,29,25.6,23.8,25.6z"/>
		<g>
			<path class="st6" d="M41.6,24c-2.8-1.2-6-0.8-8.1,1.3c-2.9,2.9-2.6,7.7,0.5,10.8c0,0,0,0,0,0c4.6-2.5,7.6-6.6,7.6-11.3
				C41.7,24.6,41.7,24.3,41.6,24z"/>
			<path class="st2" d="M34,37l-0.4-0.4c-3.4-3.4-3.6-8.6-0.5-11.7c2.2-2.2,5.7-2.8,8.8-1.5l0.3,0.1l0,0.4c0,0.4,0,0.7,0,1
				c0,4.7-3,9.2-7.9,11.9L34,37z M38.5,23.9c-1.7,0-3.3,0.6-4.5,1.8c-2.5,2.5-2.4,6.8,0.2,9.7c4.3-2.5,6.9-6.4,6.9-10.5
				c0-0.1,0-0.3,0-0.5C40.2,24.1,39.4,23.9,38.5,23.9z"/>
		</g>
		<g>
			<path class="st6" d="M5.9,24c0,0.3,0,0.6,0,0.9c0,4.7,3,8.8,7.6,11.3c0,0,0,0,0,0c3.1-3.1,3.4-8,0.5-10.8
				C11.9,23.2,8.7,22.8,5.9,24z"/>
			<path class="st2" d="M13.6,36.9l-0.4-0.2c-5-2.7-7.9-7.1-7.9-11.9c0-0.3,0-0.6,0-1l0-0.4l0.3-0.1c3.1-1.3,6.6-0.8,8.8,1.5
				c3.1,3.1,2.9,8.4-0.5,11.7l0,0L13.6,36.9z M6.5,24.4c0,0.2,0,0.3,0,0.5c0,4.1,2.6,8,6.9,10.5c2.6-2.9,2.7-7.1,0.2-9.7
				C11.8,24,9,23.5,6.5,24.4z"/>
		</g>
		<path class="st4" d="M19.8,6.1c-0.6-0.1-1.1,0.1-1.2,0.5c-0.2,1,0.9,1,0.9,1s1.7,0,2.7,0.9c1.5,1.2,1.5,2.7,1.5,2.7
			C24,7.4,20,6.1,19.8,6.1z"/>
		<path class="st4" d="M22.3,2.8c-0.6-0.5-1.3-0.6-1.7-0.1C19.8,3.7,21,4.4,21,4.4s1.9,1,2.6,2.7c1,2.3,0.1,4.1,0.1,4.1
			C26.4,6.9,22.5,2.9,22.3,2.8z"/>
		<path class="st4" d="M27.3,5.7c-0.1-0.6-0.4-1-0.9-0.9c-1,0.1-0.7,1.2-0.7,1.2s0.6,1.6,0.1,2.9c-0.6,1.8-2,2.4-2,2.4
			C27.5,10.1,27.3,5.9,27.3,5.7z"/>
	</g>
</g>
</svg>
