<svg id="Capa_1" data-name="Capa 1" xmlns="http://www.w3.org/2000/svg" viewBox="0 0 63.48 92.69"><defs><style>.cls-1{fill:#fff;}</style></defs><path class="cls-1" d="M19.42,24.81c.79,0,1.5-.84,1.75-2.09l-1.75-1,1.8-.66c-.18-1.4-.93-2.41-1.8-2.41s-1.84,1.38-1.84,3.07S18.41,24.81,19.42,24.81Z"/><path class="cls-1" d="M44,24.81c.79,0,1.5-.84,1.75-2.09l-1.75-1,1.8-.66c-.18-1.4-.94-2.41-1.8-2.41s-1.84,1.38-1.84,3.07S43,24.81,44,24.81Z"/><path class="cls-1" d="M4.22,73.41c.06.75.12,1.51.2,2.26a21.43,21.43,0,0,1,.12,2.27c0,.21,0,.42,0,.64s0,.42-.06.63a2.65,2.65,0,0,1-.15.57,1.49,1.49,0,0,1-.29.47,1.23,1.23,0,0,1-.45.32,1.84,1.84,0,0,1-.67.11,2.49,2.49,0,0,1-1.12-.25,3.44,3.44,0,0,1-.94-.67l-.45,3a3.19,3.19,0,0,0,.66.45,6.56,6.56,0,0,0,.77.32,6.07,6.07,0,0,0,.82.19,5.59,5.59,0,0,0,.8.06,3.92,3.92,0,0,0,1.72-.35,3.83,3.83,0,0,0,1.29-1A4.49,4.49,0,0,0,7.29,81a5.87,5.87,0,0,0,.39-1.69,7.87,7.87,0,0,0,0-.84v-.84c0-1.49-.07-3-.21-4.48Z"/><path class="cls-1" d="M14.58,83.12a4.86,4.86,0,0,0,.61-.26l.28-3.37a5.39,5.39,0,0,1-.48.25,5.25,5.25,0,0,1-.55.22q-.28.09-.57.15a2.64,2.64,0,0,1-.55.06,2.27,2.27,0,0,1-.65-.09,1.42,1.42,0,0,1-.5-.27,1.17,1.17,0,0,1-.34-.45,1.56,1.56,0,0,1-.12-.64,2.32,2.32,0,0,1,.22-1,2.14,2.14,0,0,1,.59-.71,2.53,2.53,0,0,1,.85-.43,3.73,3.73,0,0,1,1-.14l.42,0a2.7,2.7,0,0,1,.41.08l.41-3a3.42,3.42,0,0,0-1-.29,7.1,7.1,0,0,0-1-.08,5.46,5.46,0,0,0-2.32.47,4.85,4.85,0,0,0-1.69,1.29,5.79,5.79,0,0,0-1,1.91,7.6,7.6,0,0,0-.35,2.31,4.48,4.48,0,0,0,.33,1.73,4.43,4.43,0,0,0,.92,1.39,4.32,4.32,0,0,0,3.07,1.26,5.07,5.07,0,0,0,.66,0,5.58,5.58,0,0,0,.69-.13C14.14,83.26,14.36,83.19,14.58,83.12Z"/><polygon class="cls-1" points="23.77 83.25 24.31 76.45 26.45 76.36 26.52 73.32 18.7 73.33 18.62 76.72 20.75 76.61 20.74 83.41 23.77 83.25"/><path class="cls-1" d="M34.18,81.88a4.49,4.49,0,0,0,.69-1,4.71,4.71,0,0,0,.43-1.14,5.49,5.49,0,0,0-.18-3.15,4.13,4.13,0,0,0-.94-1.45,4,4,0,0,0-1.46-.92,5.26,5.26,0,0,0-1.9-.33,4.16,4.16,0,0,0-1.23.18,4.44,4.44,0,0,0-1.08.5,5.09,5.09,0,0,0-.9.77,4.76,4.76,0,0,0-.68,1,4.82,4.82,0,0,0-.44,1.13,5,5,0,0,0-.15,1.22,4.93,4.93,0,0,0,.16,1.23A4.65,4.65,0,0,0,27,81a4.2,4.2,0,0,0,.7.93,4.31,4.31,0,0,0,.92.72,4.58,4.58,0,0,0,1.09.46,4.53,4.53,0,0,0,1.24.17,4.48,4.48,0,0,0,2.36-.67A4.13,4.13,0,0,0,34.18,81.88Zm-2-2.57a1.55,1.55,0,0,1-.29.52,1.43,1.43,0,0,1-.45.36,1.36,1.36,0,0,1-.61.13,1.13,1.13,0,0,1-.59-.15,1.34,1.34,0,0,1-.43-.39,2,2,0,0,1-.26-.55,2.06,2.06,0,0,1-.08-.6,1.72,1.72,0,0,1,.1-.6,1.28,1.28,0,0,1,.29-.49,1.37,1.37,0,0,1,.45-.34,1.48,1.48,0,0,1,.61-.12,1.21,1.21,0,0,1,.58.14,1.39,1.39,0,0,1,.43.37,1.75,1.75,0,0,1,.26.51,2.08,2.08,0,0,1,.09.6A2.05,2.05,0,0,1,32.17,79.31Z"/><path class="cls-1" d="M42.68,82.64a4.13,4.13,0,0,0,.91-.76,4.49,4.49,0,0,0,.69-1,4.71,4.71,0,0,0,.43-1.14,5.49,5.49,0,0,0-.18-3.15,4,4,0,0,0-2.4-2.37,5.26,5.26,0,0,0-1.9-.33A4.16,4.16,0,0,0,39,74.1a4.44,4.44,0,0,0-1.08.5,5.09,5.09,0,0,0-.9.77,4.76,4.76,0,0,0-.68,1,4.82,4.82,0,0,0-.44,1.13,5,5,0,0,0-.15,1.22,4.93,4.93,0,0,0,.16,1.23,4.65,4.65,0,0,0,.46,1.1,4.2,4.2,0,0,0,.7.93,4.31,4.31,0,0,0,.92.72,4.76,4.76,0,0,0,1.09.46,4.53,4.53,0,0,0,1.24.17,4.36,4.36,0,0,0,1.26-.18A4.2,4.2,0,0,0,42.68,82.64Zm-1.84-2.45a1.36,1.36,0,0,1-.61.13,1.13,1.13,0,0,1-.59-.15,1.45,1.45,0,0,1-.43-.39,2,2,0,0,1-.26-.55,2.06,2.06,0,0,1-.08-.6A1.72,1.72,0,0,1,39,78a1.28,1.28,0,0,1,.29-.49,1.37,1.37,0,0,1,.45-.34,1.48,1.48,0,0,1,.61-.12,1.21,1.21,0,0,1,.58.14,1.39,1.39,0,0,1,.43.37,1.75,1.75,0,0,1,.26.51,2.08,2.08,0,0,1,.09.6,1.77,1.77,0,0,1-.1.61,1.55,1.55,0,0,1-.29.52A1.33,1.33,0,0,1,40.84,80.19Z"/><polygon class="cls-1" points="51.8 78.29 49.32 73.12 45.73 73.29 45.47 83.47 48.7 83.47 49.02 78.16 51.03 83.37 54.79 83.02 55.3 73.29 51.92 73.41 51.8 78.29"/><path class="cls-1" d="M63.32,78.71a2.49,2.49,0,0,0-.49-.82,2.44,2.44,0,0,0-.78-.55,3.05,3.05,0,0,0-1-.25h-.3a2.54,2.54,0,0,1-.39,0l-.42,0a2,2,0,0,1-.38-.08.62.62,0,0,1-.29-.15.37.37,0,0,1-.12-.25.4.4,0,0,1,.07-.24.65.65,0,0,1,.21-.16,2.11,2.11,0,0,1,.3-.1L60,76l.31,0h.24a4.83,4.83,0,0,1,1,.12,8.48,8.48,0,0,1,1,.27l.27-2.91a3.56,3.56,0,0,0-.67-.25c-.23-.07-.47-.12-.72-.17S61,73,60.78,73l-.73,0a4.61,4.61,0,0,0-1.52.25,4.16,4.16,0,0,0-1.31.72,3.38,3.38,0,0,0-.91,1.14A3.27,3.27,0,0,0,56,76.58a3,3,0,0,0,.21,1.14,2.63,2.63,0,0,0,.56.91,2.42,2.42,0,0,0,.87.6,2.7,2.7,0,0,0,1.12.22h.54l.34.05a1.32,1.32,0,0,1,.3.09.79.79,0,0,1,.23.16.36.36,0,0,1,.08.23.39.39,0,0,1-.12.31.72.72,0,0,1-.3.16,1.43,1.43,0,0,1-.37.07h-.33a5.74,5.74,0,0,1-1.46-.19,5.06,5.06,0,0,1-1.35-.56l-.32,3,.71.3.83.31c.29.09.57.17.85.23a3.72,3.72,0,0,0,.77.09,5.89,5.89,0,0,0,1.71-.24,4.05,4.05,0,0,0,1.38-.73,3.35,3.35,0,0,0,.93-1.23,4,4,0,0,0,.34-1.72A3.21,3.21,0,0,0,63.32,78.71Z"/><rect class="cls-1" x="0.75" y="86.83" width="1.08" height="5.79"/><rect class="cls-1" x="4.39" y="86.67" width="0.99" height="5.96"/><path class="cls-1" d="M10.35,91.48a1.56,1.56,0,0,1-.42.32,1.13,1.13,0,0,1-.48.11.68.68,0,0,1-.53-.2.94.94,0,0,1-.17-.59V88.51h-1v2.61a2.08,2.08,0,0,0,.09.63,1.42,1.42,0,0,0,.27.5,1.06,1.06,0,0,0,.43.32,1.4,1.4,0,0,0,.6.12,1.58,1.58,0,0,0,.71-.16,2.28,2.28,0,0,0,.56-.42l.07.33a.23.23,0,0,0,.25.18h.6V88.51h-1Z"/><path class="cls-1" d="M16.21,90.59a1.48,1.48,0,0,0-.32-.21l-.37-.14a2.65,2.65,0,0,0-.37-.12L14.83,90a1,1,0,0,1-.23-.16.35.35,0,0,1-.08-.22.38.38,0,0,1,.16-.33.78.78,0,0,1,.46-.12,1.33,1.33,0,0,1,.58.13l.19.09a.42.42,0,0,0,.15,0,.18.18,0,0,0,.11,0l.09-.09.22-.36a1.68,1.68,0,0,0-.58-.36,2.24,2.24,0,0,0-1.44,0,1.52,1.52,0,0,0-.49.27,1,1,0,0,0-.29.4,1.12,1.12,0,0,0-.1.48,1.05,1.05,0,0,0,.08.46,1.14,1.14,0,0,0,.23.33,1.21,1.21,0,0,0,.32.22,3,3,0,0,0,.38.15L15,91a1.33,1.33,0,0,1,.32.12.59.59,0,0,1,.23.16.32.32,0,0,1,.09.24.39.39,0,0,1,0,.18.36.36,0,0,1-.12.16.52.52,0,0,1-.21.11.87.87,0,0,1-.3,0,1.27,1.27,0,0,1-.37,0,1.56,1.56,0,0,1-.26-.11l-.19-.11a.27.27,0,0,0-.17-.06.33.33,0,0,0-.15,0,.35.35,0,0,0-.11.1l-.22.38a1.89,1.89,0,0,0,.27.2,1.87,1.87,0,0,0,.35.16,2.22,2.22,0,0,0,.39.11,2.71,2.71,0,0,0,.41,0,2.2,2.2,0,0,0,.71-.11,1.47,1.47,0,0,0,.51-.28,1.21,1.21,0,0,0,.32-.43,1.42,1.42,0,0,0,.1-.55.94.94,0,0,0-.08-.43A1.09,1.09,0,0,0,16.21,90.59Z"/><path class="cls-1" d="M20.84,91.77l-.07,0-.07,0-.09,0-.1.05-.16,0a.35.35,0,0,1-.26-.11.45.45,0,0,1-.09-.3V89.25h1.1v-.7H20v-1.3h-.51a.33.33,0,0,0-.15,0,.27.27,0,0,0-.07.13l-.21,1.12-.66.11V89a.25.25,0,0,0,.05.16.24.24,0,0,0,.14,0H19v2.3a1.16,1.16,0,0,0,.29.83,1.08,1.08,0,0,0,.82.31,1.91,1.91,0,0,0,.58-.1,1.51,1.51,0,0,0,.5-.27l-.3-.48Z"/><path class="cls-1" d="M24.55,88.64a2,2,0,0,0-.45.58L24,88.76a.38.38,0,0,0-.08-.2.37.37,0,0,0-.22,0h-.58v4.11h1V90.09a2.57,2.57,0,0,1,.15-.29.79.79,0,0,1,.18-.22.68.68,0,0,1,.23-.14.88.88,0,0,1,.29,0l.23,0,.18,0a.15.15,0,0,0,.1,0,.14.14,0,0,0,.06-.1l.07-.74a.74.74,0,0,0-.46-.13A1,1,0,0,0,24.55,88.64Z"/><path class="cls-1" d="M30.36,88.88a1.37,1.37,0,0,0-.48-.33,1.62,1.62,0,0,0-.64-.12,2.45,2.45,0,0,0-1.71.65l.18.32a.45.45,0,0,0,.11.13.35.35,0,0,0,.18,0,.43.43,0,0,0,.22-.06l.22-.12a1.69,1.69,0,0,1,.27-.13,1.16,1.16,0,0,1,.4-.06.66.66,0,0,1,.51.2.91.91,0,0,1,.18.61v.24c-.31,0-.59,0-.84.07a3.21,3.21,0,0,0-.63.16,2.07,2.07,0,0,0-.47.21,1.13,1.13,0,0,0-.3.27.79.79,0,0,0-.17.29.85.85,0,0,0-.06.31,1.22,1.22,0,0,0,.09.49.94.94,0,0,0,.25.34,1,1,0,0,0,.38.22,1.85,1.85,0,0,0,.48.07,2.35,2.35,0,0,0,.4,0,1.79,1.79,0,0,0,.35-.11,2.48,2.48,0,0,0,.31-.18,3,3,0,0,0,.3-.25l.09.3a.32.32,0,0,0,.12.17.43.43,0,0,0,.22,0h.44V90a1.91,1.91,0,0,0-.1-.64A1.48,1.48,0,0,0,30.36,88.88Zm-.56,2.68a1.45,1.45,0,0,1-.44.33,1.05,1.05,0,0,1-.52.11.66.66,0,0,1-.41-.11.43.43,0,0,1-.15-.37.39.39,0,0,1,.08-.25.57.57,0,0,1,.25-.19,1.89,1.89,0,0,1,.47-.14,4.38,4.38,0,0,1,.72-.07Z"/><path class="cls-1" d="M35.9,91.56a.24.24,0,0,0-.16,0,1.4,1.4,0,0,1-.18.13,1.08,1.08,0,0,1-.24.13,1.07,1.07,0,0,1-.39.06,1,1,0,0,1-.42-.09.83.83,0,0,1-.32-.27,1.07,1.07,0,0,1-.2-.43,2,2,0,0,1-.07-.58A2.49,2.49,0,0,1,34,90a1.3,1.3,0,0,1,.19-.43A.92.92,0,0,1,35,89.2a1.13,1.13,0,0,1,.34,0l.24.11.17.1a.3.3,0,0,0,.15,0,.21.21,0,0,0,.12,0,.38.38,0,0,0,.09-.09l.26-.36a2,2,0,0,0-.62-.43,2.4,2.4,0,0,0-1.67,0,1.67,1.67,0,0,0-.63.44,2.09,2.09,0,0,0-.38.67,2.84,2.84,0,0,0-.13.84,2.57,2.57,0,0,0,.15.9,2,2,0,0,0,.4.66,1.64,1.64,0,0,0,.59.42,1.87,1.87,0,0,0,.71.14,3.25,3.25,0,0,0,.44,0,2,2,0,0,0,.42-.11,1.71,1.71,0,0,0,.4-.21,1.8,1.8,0,0,0,.36-.32l-.29-.36A.2.2,0,0,0,35.9,91.56Z"/><path class="cls-1" d="M39.33,86.86a.69.69,0,0,0-.2-.13.53.53,0,0,0-.25,0,.49.49,0,0,0-.24,0,.69.69,0,0,0-.2.13.63.63,0,0,0-.13.2.53.53,0,0,0-.05.25.47.47,0,0,0,.05.24.53.53,0,0,0,.13.2.69.69,0,0,0,.2.13.49.49,0,0,0,.24.05.53.53,0,0,0,.25-.05.69.69,0,0,0,.2-.13.56.56,0,0,0,.14-.2.47.47,0,0,0,.05-.24.53.53,0,0,0-.05-.25A.66.66,0,0,0,39.33,86.86Z"/><rect class="cls-1" x="38.39" y="88.51" width="0.99" height="4.11"/><path class="cls-1" d="M45.08,89a1.87,1.87,0,0,0-.64-.42,2.56,2.56,0,0,0-1.67,0,1.87,1.87,0,0,0-.64.42,1.84,1.84,0,0,0-.41.67,2.42,2.42,0,0,0-.15.88,2.46,2.46,0,0,0,.15.88,1.84,1.84,0,0,0,.41.67,1.87,1.87,0,0,0,.64.42,2.4,2.4,0,0,0,1.67,0,1.87,1.87,0,0,0,.64-.42,1.84,1.84,0,0,0,.41-.67,2.46,2.46,0,0,0,.15-.88,2.42,2.42,0,0,0-.15-.88A1.84,1.84,0,0,0,45.08,89Zm-.71,2.57a.9.9,0,0,1-.76.34.88.88,0,0,1-.77-.35,1.66,1.66,0,0,1-.25-1,1.73,1.73,0,0,1,.25-1,1,1,0,0,1,1.53,0,2.19,2.19,0,0,1,0,2Z"/><path class="cls-1" d="M51.05,88.88a1.24,1.24,0,0,0-.43-.32,1.46,1.46,0,0,0-.6-.11,1.61,1.61,0,0,0-.39,0,2.13,2.13,0,0,0-.33.11,1.75,1.75,0,0,0-.29.18l-.26.23-.07-.32a.24.24,0,0,0-.25-.18h-.61v4.11h1v-3a1.78,1.78,0,0,1,.43-.32,1,1,0,0,1,.48-.12.63.63,0,0,1,.52.21.86.86,0,0,1,.18.58v2.62h1V90a1.81,1.81,0,0,0-.1-.63A1.36,1.36,0,0,0,51.05,88.88Z"/><path class="cls-1" d="M57.26,90.61a.64.64,0,0,0,.05-.3,2.14,2.14,0,0,0-.14-.79,1.56,1.56,0,0,0-.37-.59,1.42,1.42,0,0,0-.56-.36,2.09,2.09,0,0,0-.72-.12,2,2,0,0,0-.83.16,1.82,1.82,0,0,0-.62.43,1.85,1.85,0,0,0-.39.65,2.26,2.26,0,0,0-.13.79,2.75,2.75,0,0,0,.15,1,2.18,2.18,0,0,0,.43.69,2,2,0,0,0,.64.42,2.32,2.32,0,0,0,.8.14l.45,0a2.46,2.46,0,0,0,.45-.11,1.9,1.9,0,0,0,.43-.21,1.85,1.85,0,0,0,.37-.32L57,91.65a.2.2,0,0,0-.18-.09.32.32,0,0,0-.19,0l-.23.13-.31.12a1.33,1.33,0,0,1-.85,0,.87.87,0,0,1-.34-.22,1.12,1.12,0,0,1-.24-.38,2.67,2.67,0,0,1-.11-.55h2.55A.19.19,0,0,0,57.26,90.61Zm-2.71-.52a1.17,1.17,0,0,1,.32-.69.92.92,0,0,1,.67-.25.93.93,0,0,1,.39.08.79.79,0,0,1,.27.2.9.9,0,0,1,.17.3,1.36,1.36,0,0,1,.05.36Z"/><path class="cls-1" d="M62,90.59a1.48,1.48,0,0,0-.32-.21l-.37-.14a2.53,2.53,0,0,0-.36-.12L60.58,90a.71.71,0,0,1-.23-.16.31.31,0,0,1-.09-.22.39.39,0,0,1,.17-.33.76.76,0,0,1,.46-.12,1,1,0,0,1,.32,0,.92.92,0,0,1,.25.09l.19.09a.48.48,0,0,0,.15,0,.21.21,0,0,0,.12,0l.08-.09.22-.36a1.59,1.59,0,0,0-.58-.36,1.92,1.92,0,0,0-.77-.14,2,2,0,0,0-.67.1,1.52,1.52,0,0,0-.49.27,1.14,1.14,0,0,0-.29.4,1.12,1.12,0,0,0-.1.48,1.22,1.22,0,0,0,.08.46,1.14,1.14,0,0,0,.23.33,1.46,1.46,0,0,0,.33.22,2.39,2.39,0,0,0,.37.15l.37.12a1.61,1.61,0,0,1,.33.12.79.79,0,0,1,.23.16.36.36,0,0,1,.08.24.39.39,0,0,1,0,.18.36.36,0,0,1-.12.16A.55.55,0,0,1,61,92a1,1,0,0,1-.31,0,1.27,1.27,0,0,1-.37,0l-.25-.11-.19-.11a.32.32,0,0,0-.18-.06.33.33,0,0,0-.15,0,.32.32,0,0,0-.1.1l-.23.38a1.55,1.55,0,0,0,.28.2,1.77,1.77,0,0,0,.34.16,2.3,2.3,0,0,0,.81.15,2.14,2.14,0,0,0,.7-.11,1.52,1.52,0,0,0,.52-.28,1.18,1.18,0,0,0,.31-.43,1.42,1.42,0,0,0,.11-.55.94.94,0,0,0-.09-.43A1.09,1.09,0,0,0,62,90.59Z"/><path class="cls-1" d="M20.93,28.07c0,2.23,3.8,4.6,10.77,4.6s10.77-2.38,10.77-4.62a.67.67,0,0,0-1.33,0c0,1.37-3.59,3.28-9.44,3.28-5.38,0-9.42-1.72-9.43-3.27a.67.67,0,0,0-.67-.66h0A.67.67,0,0,0,20.93,28.07Z"/><path class="cls-1" d="M31.73,63.45A31.76,31.76,0,0,0,63.45,31.73c0-.73,0-1.45-.07-2.16a3.35,3.35,0,0,0,.07-.71,3.54,3.54,0,0,0-.28-1.38,31.66,31.66,0,0,0-2.69-9.14l.31-.25a.6.6,0,0,0,.22-.32L62.56,13a.7.7,0,0,0-.16-.68.68.68,0,0,0-.68-.16L57.61,13.4A31.72,31.72,0,0,0,.28,27.49,3.49,3.49,0,0,0,0,28.86a3.36,3.36,0,0,0,.08.71C0,30.28,0,31,0,31.73A31.76,31.76,0,0,0,31.73,63.45ZM1.58,27.86a2.88,2.88,0,0,1,2.59-1.48A2.68,2.68,0,0,1,7,28.86a2.68,2.68,0,0,1-2.84,2.47,2.79,2.79,0,0,1-2.75-1.88C1.46,28.92,1.51,28.38,1.58,27.86ZM31.73,62.12A30.42,30.42,0,0,1,1.34,31.73v-.08a4.37,4.37,0,0,0,2.83,1,4.33,4.33,0,0,0,2.84-1v.09q0,.44,0,.87a1.21,1.21,0,0,1,0,.19c0,.26,0,.53.08.79a2,2,0,0,0,0,.26c0,.21.06.42.1.63s.05.27.08.4.07.33.11.49.07.26.1.38l.18.61.15.42A2.19,2.19,0,0,0,8,37.1c.08.22.16.43.26.65s.09.22.14.34.12.26.19.39a6.54,6.54,0,0,0,.3.59,3.07,3.07,0,0,0,.17.31l.3.51.11.19c.15.25.31.48.47.72l.09.13a22,22,0,0,0,7.55,6.54l.17.08a29.67,29.67,0,0,0,14,3.37A29.86,29.86,0,0,0,45.42,47.7h0l.44-.24a21.83,21.83,0,0,0,7.54-6.54l.09-.13c.16-.24.32-.47.47-.72l.12-.19.3-.51.17-.31.3-.59.18-.39.15-.34c.09-.22.18-.43.26-.65l.12-.33c0-.14.1-.28.14-.42a6.13,6.13,0,0,0,.18-.61c0-.12.07-.25.1-.38s.08-.32.11-.49l.09-.4c0-.21.07-.42.1-.63l0-.26c0-.26.06-.53.08-.79a1.21,1.21,0,0,0,0-.19q0-.43,0-.87v-.09a4.35,4.35,0,0,0,2.84,1,4.4,4.4,0,0,0,2.84-1v.08A30.42,30.42,0,0,1,31.73,62.12Zm19.35-40.4.1.11.42.5.2.25c.12.15.23.31.35.47s.21.29.31.44a14.87,14.87,0,0,1,2.46,6,10.36,10.36,0,0,0-10.56,2.33c-3.89,3.9-3.79,10.4.1,14.85a28.6,28.6,0,0,1-12.73,2.9A28.54,28.54,0,0,1,19,46.69c3.89-4.45,4-10.95.09-14.85A10.34,10.34,0,0,0,8.54,29.51C10,20.7,19.82,13.87,31.73,13.87,39.77,13.87,46.88,17,51.08,21.72Zm4,10.82c0,.06,0,.11,0,.17,0,.24,0,.47-.07.71s0,.19,0,.29l-.09.51c0,.18-.07.35-.11.53s0,.13,0,.2a16.36,16.36,0,0,1-4.62,7.8l-.05,0c-.26.25-.52.49-.79.72l-.07.06-.38.32-.29.23-.51.4-.38.27a3.62,3.62,0,0,1-.32.22l-.6.41-.31.19-.49.29-.24.14c-3.64-3.93-3.83-9.8-.36-13.26a8.63,8.63,0,0,1,6.18-2.49,10.09,10.09,0,0,1,3.59.67h0c0,.25,0,.5,0,.75S55.09,32.27,55.08,32.54Zm-38,13.08-.3-.19L16.14,45l-.32-.22-.37-.27-.52-.4-.29-.23-.38-.32,0,0c-.28-.24-.55-.48-.81-.73l0,0A16.36,16.36,0,0,1,8.74,35c0-.07,0-.13-.05-.2s-.08-.36-.11-.54-.06-.33-.08-.5a2.89,2.89,0,0,1,0-.29c0-.24-.06-.47-.07-.71a1,1,0,0,1,0-.17q0-.4,0-.81c0-.26,0-.51,0-.76a9.11,9.11,0,0,1,9.78,1.82c3.46,3.46,3.27,9.32-.37,13.26l-.23-.13ZM62,29.46a2.8,2.8,0,0,1-2.75,1.87,2.68,2.68,0,0,1-2.84-2.47,2.68,2.68,0,0,1,2.84-2.48,2.89,2.89,0,0,1,2.59,1.47C61.94,28.38,62,28.92,62,29.46Zm-.52-3.82a4.49,4.49,0,0,0-2.23-.59A4.25,4.25,0,0,0,55.67,27,16.84,16.84,0,0,0,54,23.44l5.39-4.25A30.06,30.06,0,0,1,61.51,25.64ZM59.8,17.17l-6.52,5.16c-.27-.38-.56-.75-.86-1.1l5-6.39,3.42-1.07ZM31.73,1.34A30.38,30.38,0,0,1,56.41,14l-4.9,6.21c-4.17-4.32-10.64-7.23-18-7.64,3.09-2.1,2.95-6.36,2.92-6.55-.12-.84-.58-1.33-1.19-1.25-1.39.2-.89,1.6-.89,1.6a6.67,6.67,0,0,1,.14,3.84A6,6,0,0,1,33,12.56l-.78,0C34.71,7.15,30,2.3,29.76,2.13,28.9,1.43,28,1.35,27.5,2c-1.17,1.43.56,2.34.56,2.34A8.73,8.73,0,0,1,31.6,7.93a7.47,7.47,0,0,1,.47,4.61h-.29c-.34-4.4-5.16-5.93-5.36-6-.83-.17-1.45.1-1.58.7-.27,1.38,1.21,1.38,1.21,1.38a6.68,6.68,0,0,1,3.67,1.15,5.82,5.82,0,0,1,1.9,2.74C20.16,12.57,10.52,18.7,7.79,27a4.27,4.27,0,0,0-3.62-1.91A4.46,4.46,0,0,0,2,25.64,30.44,30.44,0,0,1,31.73,1.34Z"/></svg>